<?xml version="1.0" encoding="UTF-8"?>
<svg id="_图层_2" data-name="图层 2" xmlns="http://www.w3.org/2000/svg" viewBox="0 0 232.33 194.33">
  <defs>
    <style>
      .cls-1 {
        fill: #329b9f;
      }
    </style>
  </defs>
  <g id="_图层_1-2" data-name="图层 1">
    <path class="cls-1" d="M124.4,35.98l-26.48-15.75c-.96-3.53-4.16-6.13-8.01-6.13s-6.88,2.49-7.93,5.86l-17.68,9.81c-4.43,.21-7.95,3.81-7.95,8.26,0,2.82,1.42,5.31,3.6,6.8l-.02,50.16c0,2.62,2.15,4.77,4.79,4.77s4.77-2.15,4.77-4.77l.02-50.22c2.13-1.49,3.52-3.95,3.52-6.74,0-.71-.11-1.4-.29-2.05l12.34-6.84c1.36,.98,3.03,1.55,4.83,1.55,1.71,0,3.31-.52,4.64-1.4l24.94,14.85c.77,.46,1.61,.67,2.45,.67,1.63,0,3.2-.82,4.1-2.3,1.36-2.26,.61-5.19-1.65-6.53Zm-59.97,5.35c-1.82,0-3.31-1.48-3.31-3.3s1.49-3.3,3.31-3.3,3.31,1.48,3.31,3.3-1.48,3.3-3.31,3.3Zm25.4-15.63c-1.82,0-3.31-1.48-3.31-3.3s1.49-3.3,3.31-3.3,3.31,1.48,3.31,3.3-1.48,3.3-3.31,3.3Z"/>
    <path class="cls-1" d="M148.72,55.17c0-4.6-3.74-8.3-8.35-8.3s-8.33,3.7-8.33,8.3c0,3.03,1.65,5.65,4.1,7.09-.02,.1-.04,.19-.04,.27v26.15c0,2.64,2.15,4.77,4.79,4.77s4.79-2.13,4.79-4.77v-26.15c0-.31-.04-.61-.1-.92,1.9-1.53,3.14-3.83,3.14-6.44Zm-8.41,3.3c-1.84,0-3.31-1.48-3.31-3.3s1.48-3.3,3.31-3.3,3.31,1.48,3.31,3.3-1.49,3.3-3.31,3.3Z"/>
    <path class="cls-1" d="M173.43,43.33c1.57-1.49,2.55-3.6,2.55-5.94,0-4.44-3.53-8.03-7.93-8.26L119.75,.67c-2.28-1.34-5.21-.59-6.55,1.67-1.34,2.26-.59,5.17,1.69,6.51l44.74,26.38c-.19,.69-.33,1.42-.33,2.16,0,3.24,1.88,6,4.58,7.38l.1,41.42c-3.03,1.25-5.15,4.2-5.15,7.66,0,.33,.06,.63,.1,.94l-22.15,12.68c-2.3,1.3-3.08,4.21-1.76,6.49,.88,1.53,2.51,2.38,4.16,2.38,.8,0,1.63-.21,2.38-.63l23.97-13.74c.54,.11,1.09,.17,1.65,.17,4.62,0,8.33-3.72,8.33-8.3,0-2.03-.75-3.85-1.95-5.29l-.1-45.23Zm-6.36,53.82c-1.82,0-3.31-1.48-3.31-3.3s1.49-3.3,3.31-3.3,3.31,1.48,3.31,3.3-1.48,3.3-3.31,3.3Zm.5-56.46c-1.84,0-3.31-1.48-3.31-3.3s1.48-3.3,3.31-3.3,3.31,1.48,3.31,3.3-1.49,3.3-3.31,3.3Z"/>
    <path class="cls-1" d="M110.99,61.59c-.56,0-1.07,.06-1.59,.15l-14.91-8.91c-.46-4.14-3.95-7.36-8.24-7.36-4.6,0-8.33,3.72-8.33,8.3,0,2.24,.9,4.27,2.36,5.77v38.7c-1.59,1.51-2.61,3.62-2.61,6,0,4.58,3.74,8.3,8.35,8.3,.31,0,.61-.06,.92-.1l20.58,11.67c.75,.42,1.55,.61,2.36,.61,1.67,0,3.28-.86,4.16-2.39,1.32-2.28,.52-5.19-1.78-6.49l-18.05-10.21c.08-.46,.15-.92,.15-1.38,0-3.2-1.84-5.94-4.52-7.34V61.23s.06-.02,.1-.04l12.82,7.68c-.06,.34-.11,.67-.11,1.02,0,3.14,1.78,5.84,4.37,7.24l-.04,17.17c0,2.62,2.13,4.75,4.77,4.75h.02c2.62,0,4.77-2.11,4.77-4.73l.04-18.3c1.69-1.53,2.76-3.7,2.76-6.13,0-4.58-3.74-8.3-8.33-8.3Zm-25.04,45.94c-1.84,0-3.31-1.48-3.31-3.3s1.48-3.3,3.31-3.3,3.31,1.48,3.31,3.3-1.49,3.3-3.31,3.3Zm.23-50.46c-1.82,0-3.3-1.48-3.3-3.3s1.48-3.3,3.3-3.3,3.33,1.48,3.33,3.3-1.49,3.3-3.33,3.3Zm25.21,16.11c-1.84,0-3.31-1.48-3.31-3.3s1.48-3.3,3.31-3.3,3.31,1.48,3.31,3.3-1.48,3.3-3.31,3.3Z"/>

  </g>
</svg>